<?xml version="1.0" encoding="UTF-8" standalone="no"?>
<svg
   xmlns:dc="http://purl.org/dc/elements/1.1/"
   xmlns:cc="http://creativecommons.org/ns#"
   xmlns:rdf="http://www.w3.org/1999/02/22-rdf-syntax-ns#"
   xmlns:svg="http://www.w3.org/2000/svg"
   xmlns="http://www.w3.org/2000/svg"
   xmlns:sodipodi="http://sodipodi.sourceforge.net/DTD/sodipodi-0.dtd"
   xmlns:inkscape="http://www.inkscape.org/namespaces/inkscape"
   inkscape:version="1.0rc1 (09960d6, 2020-04-09)"
   sodipodi:docname="logo.svg"
   id="svg22"
   version="1.1"
   width="85"
   viewBox="0 0 63.749998 71.249998"
   height="95">
  <metadata
     id="metadata28">
    <rdf:RDF>
      <cc:Work
         rdf:about="">
        <dc:format>image/svg+xml</dc:format>
        <dc:type
           rdf:resource="http://purl.org/dc/dcmitype/StillImage" />
        <dc:title></dc:title>
      </cc:Work>
    </rdf:RDF>
  </metadata>
  <defs
     id="defs26" />
  <sodipodi:namedview
     units="px"
     inkscape:current-layer="svg22"
     inkscape:window-maximized="0"
     inkscape:window-y="23"
     inkscape:window-x="0"
     inkscape:cy="319.2555"
     inkscape:cx="379.90751"
     inkscape:zoom="0.75827679"
     showgrid="false"
     id="namedview24"
     inkscape:window-height="782"
     inkscape:window-width="1440"
     inkscape:pageshadow="2"
     inkscape:pageopacity="0"
     guidetolerance="10"
     gridtolerance="10"
     objecttolerance="10"
     borderopacity="1"
     inkscape:document-rotation="0"
     bordercolor="#666666"
     pagecolor="#ffffff" />
  <g
     style="stroke-width:8.03137"
     transform="matrix(0.12451172,0,0,0.12451172,-1.2673684e-6,3.7499986)"
     id="g1446">
    <path
       style="stroke-width:8.03137"
       d="m 338.62891,256 c 0,-45.5625 -37.06641,-82.62891 -82.62891,-82.62891 -45.5625,0 -82.62891,37.06641 -82.62891,82.62891 0,45.5625 37.06641,82.62891 82.62891,82.62891 45.5625,0 82.62891,-37.06641 82.62891,-82.62891 z m -145.25782,0 c 0,-34.53516 28.09375,-62.62891 62.62891,-62.62891 34.53516,0 62.62891,28.09766 62.62891,62.62891 0,34.53125 -28.09375,62.62891 -62.62891,62.62891 -34.53516,0 -62.62891,-28.09375 -62.62891,-62.62891 z m 0,0"
       id="path16"
       inkscape:connector-curvature="0" />
    <g
       style="stroke-width:8.03137"
       id="g1434">
      <path
         style="stroke-width:8.03137"
         inkscape:connector-curvature="0"
         id="path10"
         d="m 90.050781,395.94922 c -7.167969,0 -14.058593,1.78906 -20.171875,5.14844 C 37.675781,359.81641 20,308.53516 20,256 20,125.86719 125.86719,20 256,20 c 15.82031,0 31.63281,1.574219 47,4.679688 5.40625,1.09375 10.6875,-2.40625 11.78125,-7.820313 C 315.875,11.445312 312.375,6.171875 306.96094,5.074219 290.29297,1.707031 273.14844,0 256,0 187.62109,0 123.33203,26.628906 74.980469,74.980469 26.628906,123.33203 0,187.62109 0,256 c 0,57.51953 19.53125,113.65234 55.089844,158.65234 -4.578125,6.83985 -7.039063,14.87891 -7.039063,23.29688 0,11.21875 4.371094,21.76562 12.304688,29.69531 7.929687,7.93359 18.476562,12.30469 29.695312,12.30469 11.218749,0 21.765629,-4.3711 29.699219,-12.30469 7.93359,-7.92969 12.30078,-18.48047 12.30078,-29.69922 0,-11.21484 -4.36719,-21.76562 -12.30078,-29.69531 -7.93359,-7.93359 -18.48047,-12.30078 -29.699219,-12.30078 z m 15.554689,57.55469 c -4.15234,4.15625 -9.679689,6.44531 -15.554689,6.44531 -5.875,0 -11.398437,-2.28906 -15.554687,-6.44531 -4.15625,-4.15625 -6.445313,-9.67969 -6.445313,-15.55469 0,-5.87891 2.289063,-11.40235 6.445313,-15.5586 4.152344,-4.15625 9.679687,-6.4414 15.554687,-6.4414 5.875,0 11.398439,2.28906 15.554689,6.4414 4.15625,4.15625 6.44531,9.67969 6.44531,15.5586 0,5.875 -2.28906,11.39844 -6.44531,15.55469 z m 0,0" />
      <path
         style="stroke-width:8.03137"
         inkscape:connector-curvature="0"
         id="path12"
         d="m 456.90234,97.335938 c 10.8711,-16.308594 9.125,-38.605469 -5.2539,-52.984376 -7.9336,-7.929687 -18.48047,-12.300781 -29.69922,-12.300781 -11.21875,0 -21.76563,4.371094 -29.69922,12.300781 -7.93359,7.933594 -12.30078,18.480469 -12.30078,29.699219 0,11.21875 4.36719,21.765625 12.30078,29.699219 7.93359,7.93359 18.48047,12.30078 29.69922,12.30078 7.16797,0 14.05859,-1.78906 20.17187,-5.14844 C 474.32422,152.1875 492,203.46484 492,256 c 0,130.13281 -105.86719,236 -236,236 -15.66406,0 -31.32812,-1.54297 -46.55078,-4.58984 -5.41406,-1.08204 -10.68359,2.42968 -11.76953,7.84375 -1.08203,5.41796 2.42969,10.68359 7.84375,11.76953 C 222.03516,510.32422 239.01953,512 256,512 324.37891,512 388.66797,485.37109 437.01953,437.01953 485.37109,388.66797 512,324.37891 512,256 512,198.47656 492.46484,142.33984 456.90234,97.335938 Z m -50.50781,-7.726563 c -4.15625,-4.15625 -6.44531,-9.679687 -6.44531,-15.558594 0,-5.875 2.28906,-11.398437 6.44531,-15.554687 4.15235,-4.15625 9.67969,-6.445313 15.55469,-6.445313 5.875,0 11.40234,2.289063 15.55859,6.445313 8.57422,8.578125 8.57422,22.535156 0,31.113281 -4.15625,4.152344 -9.68359,6.441406 -15.55859,6.441406 -5.87891,0 -11.40235,-2.289062 -15.55469,-6.441406 z m 0,0" />
      <path
         style="stroke-width:8.03137"
         inkscape:connector-curvature="0"
         id="path14"
         d="m 214.73437,428 c 0,5.52344 4.48047,10 10,10 h 62.52735 c 5.52344,0 10,-4.47656 10,-10 v -19.38672 c 13.14844,-3.53906 25.71875,-8.75 37.53125,-15.55469 l 13.6875,13.6875 c 1.875,1.875 4.41797,2.92969 7.07422,2.92969 2.64843,0 5.19531,-1.05469 7.07031,-2.93359 l 44.19531,-44.22656 c 3.90235,-3.90625 3.90235,-10.23829 0,-14.14063 l -13.67187,-13.67187 c 6.80468,-11.8125 12.01562,-24.38282 15.55468,-37.53125 h 19.3125 c 5.52344,0 10,-4.47657 10,-10 v -62.52735 c 0,-5.52344 -4.47656,-10 -10,-10 h -19.3164 C 405.16016,201.5 399.95312,188.92969 393.14844,177.11719 l 13.59765,-13.59766 c 1.875,-1.875 2.92969,-4.42187 2.92969,-7.07422 -0.004,-2.65234 -1.05859,-5.19922 -2.93359,-7.07422 l -44.23047,-44.19531 c -3.90235,-3.90234 -10.23438,-3.90234 -14.14063,0.004 l -13.57812,13.58203 c -11.8125,-6.80469 -24.38281,-12.01563 -37.53125,-15.55469 V 84 c 0,-5.523438 -4.47656,-10 -10,-10 h -62.52735 c -5.51953,0 -10,4.476562 -10,10 v 19.21094 c -13.14453,3.53515 -25.71484,8.74609 -37.52734,15.55078 L 163.625,105.17969 c -3.90234,-3.90235 -10.23438,-3.90625 -14.14063,-0.004 L 105.25781,149.375 c -1.8789,1.875 -2.93359,4.41797 -2.93359,7.07031 0,2.65235 1.05469,5.19922 2.92969,7.07422 l 13.59765,13.59766 c -6.80469,11.8125 -12.01562,24.3789 -15.55469,37.52734 H 84.019531 c -5.523437,0 -10,4.47656 -10,9.9961 l -0.03516,62.52734 c -0.0039,2.65234 1.050781,5.19922 2.925781,7.07422 1.875,1.875 4.417969,2.92969 7.074219,2.92969 h 19.312499 c 3.53907,13.14843 8.75,25.71875 15.55469,37.53125 L 105.17969,348.375 c -3.90235,3.90234 -3.90625,10.23438 0,14.14063 l 44.19531,44.22656 c 1.875,1.875 4.41797,2.93359 7.07031,2.93359 h 0.004 c 2.65234,0 5.19531,-1.05469 7.07031,-2.92969 l 13.68359,-13.6875 c 11.81641,6.80469 24.38672,12.01563 37.53125,15.55469 z M 181.125,372.02734 c -3.95703,-2.55859 -9.16406,-2.0039 -12.5,1.32813 l -12.17578,12.17578 -30.05859,-30.08203 12.16406,-12.16797 c 3.33203,-3.33203 3.88672,-8.53906 1.32812,-12.49609 -9.0664,-14.03125 -15.4414,-29.41016 -18.9414,-45.71485 -0.99219,-4.60547 -5.0625,-7.89843 -9.77735,-7.89843 H 93.988281 l 0.02344,-42.52735 h 17.152339 c 4.71485,0 8.78516,-3.28906 9.77735,-7.89844 3.5,-16.30078 9.875,-31.67968 18.9414,-45.71093 2.5586,-3.95703 2.00391,-9.16407 -1.32812,-12.4961 l -12.08594,-12.08984 30.08203,-30.05859 12.07422,12.07812 c 3.33594,3.33203 8.53906,3.88281 12.5,1.32813 14.02734,-9.06641 29.40625,-15.44141 45.71094,-18.94141 4.60547,-0.99219 7.89843,-5.06641 7.89843,-9.77734 V 94 h 42.52735 v 17.07422 c 0,4.71484 3.28906,8.78906 7.89844,9.77734 16.30078,3.50391 31.68359,9.875 45.71093,18.94141 3.95703,2.55859 9.16407,2.00781 12.4961,-1.32813 l 12.07812,-12.07421 30.08203,30.05859 -12.08593,12.08594 c -3.33594,3.33593 -3.88672,8.54297 -1.32813,12.5 9.06641,14.03125 15.4375,29.41015 18.94141,45.71093 0.98828,4.60938 5.0625,7.89844 9.77734,7.89844 h 17.18359 v 42.52735 h -17.18359 c -4.71484,0 -8.78516,3.29296 -9.77734,7.89843 -3.5,16.30078 -9.875,31.6836 -18.94141,45.71094 -2.55859,3.96094 -2.0039,9.16797 1.32813,12.5 l 12.16406,12.16406 -30.0586,30.08203 -12.17578,-12.17187 c -3.33593,-3.33594 -8.54297,-3.88672 -12.5,-1.32813 -14.03125,9.06641 -29.41015,15.4375 -45.71093,18.94141 -4.60938,0.99219 -7.89844,5.0625 -7.89844,9.77734 V 418 h -42.52735 v -17.25391 c 0,-4.71093 -3.29296,-8.78515 -7.89843,-9.77734 -16.30078,-3.5 -31.67969,-9.875 -45.71094,-18.94141 z m 0,0" />
      <path
         style="stroke-width:8.03137"
         inkscape:connector-curvature="0"
         id="path18"
         d="m 348.07812,37.820312 c 2.63282,0 5.21094,-1.070312 7.07032,-2.929687 1.85937,-1.871094 2.92968,-4.449219 2.92968,-7.082031 0,-2.617188 -1.0664,-5.199219 -2.92968,-7.070313 -1.85938,-1.859375 -4.4375,-2.929687 -7.07032,-2.929687 -2.64062,0 -5.20703,1.070312 -7.0664,2.929687 -1.86328,1.871094 -2.9336,4.441407 -2.9336,7.070313 0,2.640625 1.07032,5.210937 2.9336,7.082031 1.85937,1.859375 4.42578,2.929687 7.0664,2.929687 z m 0,0" />
      <path
         style="stroke-width:8.03137"
         inkscape:connector-curvature="0"
         id="path20"
         d="m 164.35937,474.35937 c -2.6289,0 -5.21093,1.07032 -7.07031,2.92969 -1.85937,1.85938 -2.92969,4.44141 -2.92969,7.07031 0,2.64063 1.07032,5.21094 2.92969,7.07032 1.85938,1.85937 4.44141,2.92968 7.07031,2.92968 2.62891,0 5.21094,-1.07031 7.07032,-2.92968 1.85937,-1.85938 2.92968,-4.44141 2.92968,-7.07032 0,-2.6289 -1.07031,-5.21093 -2.92968,-7.07031 -1.85938,-1.85937 -4.44141,-2.92969 -7.07032,-2.92969 z m 0,0" />
      <path
         transform="scale(0.74999998)"
         inkscape:connector-curvature="0"
         id="path34"
         d="m 556.93358,126.84736 c -21.1557,-5.30199 -29.76307,-29.896848 -16.21498,-46.33302 10.01633,-12.151556 28.21745,-13.578081 40.38276,-3.165028 6.64346,5.686552 9.60501,12.373333 9.63914,21.763816 0.0227,6.243702 -0.61429,8.494552 -3.97154,14.034162 -6.18178,10.20022 -19.46409,16.2993 -29.83538,13.70007 z"
         style="fill:#008080;stroke-width:9.88116" />
      <path
         transform="scale(0.74999998)"
         inkscape:connector-curvature="0"
         id="path36"
         d="m 109.08476,609.1945 c -5.59291,-2.5408 -12.398271,-9.71891 -14.907259,-15.72377 -3.939349,-9.42818 -1.188448,-21.68753 6.500439,-28.9691 11.14907,-10.55844 26.43389,-10.87087 37.90366,-0.77477 11.36163,10.00091 12.2405,26.20905 2.0657,38.09602 -7.87199,9.19664 -20.86525,12.2313 -31.56254,7.37162 z"
         style="fill:#ff5555;stroke-width:9.88116" />
      <path
         transform="scale(0.74999998)"
         inkscape:connector-curvature="0"
         id="path38"
         d="m 313.94441,545.01197 c 0,-13.56035 -1.73616,-19.74325 -6.21735,-22.14151 -1.50409,-0.80496 -7.65664,-2.78076 -13.67237,-4.39067 -14.49224,-3.87838 -29.69614,-10.21738 -44.52672,-18.56462 -16.43364,-9.24952 -18.56137,-8.99093 -31.45008,3.82218 l -9.36786,9.31292 -19.64274,-19.67157 -19.64274,-19.67157 9.71841,-9.77574 c 9.25552,-9.31013 9.71841,-10.03999 9.71841,-15.32351 0,-3.90404 -0.94061,-6.96912 -3.17469,-10.34505 -8.71004,-13.16175 -17.62235,-34.6657 -23.70634,-57.19949 -2.78947,-10.33163 -5.88904,-11.93775 -23.04965,-11.94372 l -13.226,-0.005 v -27.57644 -27.57643 l 14.07142,-0.41346 c 13.4662,-0.39567 14.22551,-0.56123 17.65416,-3.84926 2.71063,-2.59946 4.24243,-6.04355 6.2928,-14.14873 3.66011,-14.4685 10.09697,-30.45661 17.93468,-44.54687 3.57583,-6.42845 6.8841,-12.94248 7.35172,-14.47563 1.493,-4.89508 -1.57391,-10.59905 -10.41746,-19.37484 l -8.61468,-8.54866 19.3363,-19.36468 19.3363,-19.36467 9.27828,9.02686 c 13.18348,12.82623 15.64457,13.01559 33.45953,2.57454 11.30847,-6.62772 28.51422,-13.6522 42.3257,-17.28005 9.24066,-2.42724 13.1369,-4.0962 15.92483,-6.82141 3.616,-3.53467 3.69938,-3.89493 4.10443,-17.73628 l 0.41346,-14.12832 h 27.57643 27.57644 l 0.005,13.22599 c 0.006,17.14144 1.60977,20.24185 11.94371,23.08891 22.26219,6.13338 36.73533,12.11607 58.18021,24.04966 9.85501,5.48409 12.98805,4.57702 24.92133,-7.21522 l 9.54226,-9.42949 19.64357,19.61478 19.64356,19.61478 -9.80821,10.04861 c -12.50345,12.80991 -12.66118,14.35921 -3.17504,31.18645 8.54042,15.14965 13.58473,27.14899 17.97841,42.76678 1.94114,6.90001 4.16279,13.72904 4.93698,15.17563 2.30706,4.31079 8.63647,6.11283 21.4704,6.11283 h 11.72761 v 27.68231 27.68231 h -13.51416 c -13.016,0 -13.65201,0.12472 -17.2535,3.3834 -2.92474,2.64634 -4.38007,5.79556 -6.68055,14.45631 -4.94707,18.62448 -11.30203,33.6595 -21.12924,49.9891 -6.94652,11.54286 -5.7165,16.39536 7.43765,29.34203 l 8.10005,7.9723 -19.36677,19.3952 -19.36679,19.39521 -8.63393,-8.46755 c -4.74865,-4.65716 -9.84323,-9.08307 -11.32127,-9.83537 -4.2655,-2.17106 -9.22158,-1.60968 -15.17139,1.7185 -20.70803,11.58351 -38.99786,19.14705 -58.14676,24.0459 -3.77806,0.96653 -6.96371,2.79501 -8.91985,5.11975 -2.84865,3.38504 -3.0432,4.51485 -3.0432,17.6706 v 14.05434 H 341.6268 313.94449 Z m 57.81031,-97.10316 c 29.81895,-8.68904 54.70654,-29.47039 68.31545,-57.044 8.15236,-16.51783 10.49622,-25.7537 11.30751,-44.55654 1.09831,-25.45476 -4.41559,-46.10407 -17.63229,-66.03216 -26.35629,-39.73987 -74.62526,-57.94007 -121.64647,-45.86778 -4.06007,1.04239 -12.04829,4.11739 -17.75159,6.83334 -31.21812,14.86625 -52.72797,41.48968 -61.2033,75.75333 -3.09873,12.52738 -2.74404,38.51553 0.70295,51.50486 2.86053,10.77932 10.22604,27.11207 16.03254,35.55152 15.73624,22.87184 39.9501,39.06225 68.37103,45.71572 11.3691,2.66158 41.59574,1.61174 53.50417,-1.85829 z"
         style="fill:#8dd35f;stroke-width:9.88116" />
    </g>
  </g>
</svg>
