<svg xmlns="http://www.w3.org/2000/svg" xmlns:xlink="http://www.w3.org/1999/xlink" x="0" y="0" width="662" height="116" style="
        width:662px;
        height:116px;
        background: transparent;
        fill: none;
">
        
        
        <svg xmlns="http://www.w3.org/2000/svg" class="role-diagram-draw-area"><g class="shapes-region" style="stroke: black; fill: none;"><g class="grouped-shape"><g class="grouped-shape"><g class="composite-shape"><path class="real" d=" M150,55 C150,35.67 165.67,20 185,20 C204.33,20 220,35.67 220,55 C220,74.33 204.33,90 185,90 C165.67,90 150,74.33 150,55 Z" style="stroke-width: 1; stroke: rgb(0, 0, 0); fill: none; fill-opacity: 1;"/></g></g><g class="grouped-shape"><g class="composite-shape"><path class="real" d=" M450,55 C450,35.67 465.67,20 485,20 C504.33,20 520,35.67 520,55 C520,74.33 504.33,90 485,90 C465.67,90 450,74.33 450,55 Z" style="stroke-width: 1; stroke: rgb(0, 0, 0); fill: none; fill-opacity: 1;"/></g></g><g class="arrow-line"><path class="connection real" stroke-dasharray="1.125 3.35" d="  M185,90 L330,90" style="stroke: rgb(0, 0, 0); stroke-width: 1; fill: none; fill-opacity: 1;"/><g stroke="#000" transform="matrix(-1,1.2246467991473532e-16,-1.2246467991473532e-16,-1,330,89.99999999999999)" style="stroke: rgb(0, 0, 0); stroke-width: 1;"><path d=" M0,5.59 L0,-5.59"/></g><g stroke="#000" transform="matrix(-1,1.2246467991473532e-16,-1.2246467991473532e-16,-1,185,90)" style="stroke: rgb(0, 0, 0); stroke-width: 1;"><path d=" M0,5.59 L0,-5.59"/></g></g><g class="arrow-line"><path class="connection real" stroke-dasharray="1.125 3.35" d="  M185,20 L485,20" style="stroke: rgb(0, 0, 0); stroke-width: 1; fill: none; fill-opacity: 1;"/><g stroke="#000" transform="matrix(-1,1.2246467991473532e-16,-1.2246467991473532e-16,-1,485,20.000000000000004)" style="stroke: rgb(0, 0, 0); stroke-width: 1;"><path d=" M0,5.59 L0,-5.59"/></g><g stroke="#000" transform="matrix(-1,1.2246467991473532e-16,-1.2246467991473532e-16,-1,185,20)" style="stroke: rgb(0, 0, 0); stroke-width: 1;"><path d=" M0,5.59 L0,-5.59"/></g></g></g><g/></g><g/><g/><g/></svg>
        <svg xmlns="http://www.w3.org/2000/svg" xmlns:xlink="http://www.w3.org/1999/xlink" width="660" height="114" style="width:660px;height:114px;font-family:Asana-Math, Asana;background:transparent;"><g><g><g><g transform="matrix(1,0,0,1,477.9921875,58.9921875)"><path transform="matrix(0.017,0,0,-0.017,0,0)" d="M385 458C342 475 313 482 284 482C209 482 121 394 103 374C63 327 24 181 24 78C24 19 36 -11 60 -11C82 -11 101 -3 133 19C180 51 259 121 308 209L232 -205C227 -229 217 -249 205 -262L214 -276C245 -268 276 -262 300 -259C304 -205 310 -150 319 -100L405 356C416 417 422 443 432 474L418 480ZM118 59C104 59 96 80 96 113C96 209 139 359 181 409C193 424 222 433 254 433C282 433 303 427 351 406L330 311C301 174 160 59 118 59Z" stroke="rgb(0,0,0)" stroke-opacity="1" stroke-width="8" fill="rgb(0,0,0)" fill-opacity="1"></path></g></g><g><g><g><g><g transform="matrix(1,0,0,1,486.3515625,62.0015625)"><path transform="matrix(0.0119,0,0,-0.0119,0,0)" d="M16 23L16 -3C203 -3 203 0 239 0C275 0 275 -3 468 -3L468 82C353 77 307 81 122 77L304 270C401 373 431 428 431 503C431 618 353 689 226 689C154 689 105 669 56 619L39 483L68 483L81 529C97 587 133 612 200 612C286 612 341 558 341 473C341 398 299 324 186 204Z" stroke="rgb(0,0,0)" stroke-opacity="1" stroke-width="8" fill="rgb(0,0,0)" fill-opacity="1"></path></g></g></g></g></g></g></g><g><g><g><g transform="matrix(1,0,0,1,177.9921875,58.9921875)"><path transform="matrix(0.017,0,0,-0.017,0,0)" d="M385 458C342 475 313 482 284 482C209 482 121 394 103 374C63 327 24 181 24 78C24 19 36 -11 60 -11C82 -11 101 -3 133 19C180 51 259 121 308 209L232 -205C227 -229 217 -249 205 -262L214 -276C245 -268 276 -262 300 -259C304 -205 310 -150 319 -100L405 356C416 417 422 443 432 474L418 480ZM118 59C104 59 96 80 96 113C96 209 139 359 181 409C193 424 222 433 254 433C282 433 303 427 351 406L330 311C301 174 160 59 118 59Z" stroke="rgb(0,0,0)" stroke-opacity="1" stroke-width="8" fill="rgb(0,0,0)" fill-opacity="1"></path></g></g><g><g><g><g><g transform="matrix(1,0,0,1,186.3515625,62.0015625)"><path transform="matrix(0.0119,0,0,-0.0119,0,0)" d="M418 -3L418 27L366 30C311 33 301 44 301 96L301 700L60 598L67 548L217 614L217 96C217 44 206 33 152 30L96 27L96 -3C250 0 250 0 261 0C292 0 402 -3 418 -3Z" stroke="rgb(0,0,0)" stroke-opacity="1" stroke-width="8" fill="rgb(0,0,0)" fill-opacity="1"></path></g></g></g></g></g></g></g><g><g><g><g transform="matrix(1,0,0,1,239,105)"><path transform="matrix(0.015,0,0,-0.015,0,0)" d="M89 571C109 571 168 571 220 597L220 79C220 43 217 31 127 31L95 31L95 0C130 3 217 3 257 3C297 3 384 3 419 0L419 31L387 31C297 31 294 42 294 79L294 640C294 664 294 666 271 666C209 602 121 602 89 602ZM550 161C550 75 619 -22 731 -22C847 -22 949 74 949 201C949 320 867 420 759 420C711 420 668 404 632 369L632 564C652 558 685 551 717 551C840 551 910 642 910 655C910 661 907 666 900 666C899 666 897 666 892 663C872 654 823 634 756 634C716 634 670 641 623 662C615 665 613 665 611 665C601 665 601 657 601 641L601 345C601 327 601 319 615 319C622 319 624 322 628 328C639 344 676 398 757 398C809 398 834 352 842 334C858 297 860 258 860 208C860 173 860 113 836 71C812 32 775 6 729 6C656 6 599 59 582 118C585 117 588 116 599 116C632 116 649 141 649 165C649 189 632 214 599 214C585 214 550 207 550 161ZM1367 216C1367 88 1466 -11 1582 -11C1716 -11 1748 109 1748 119C1748 129 1738 129 1735 129C1726 129 1724 125 1722 119C1693 26 1628 14 1591 14C1538 14 1450 57 1450 218C1450 381 1532 423 1585 423C1594 423 1657 422 1692 386C1651 383 1645 353 1645 340C1645 314 1663 294 1691 294C1717 294 1737 311 1737 341C1737 409 1661 448 1584 448C1459 448 1367 340 1367 216ZM1809 0C1844 1 1895 3 1922 3C1948 3 2000 1 2034 0L2034 31C1967 31 1956 31 1956 76L1956 260C1956 364 2027 420 2091 420C2154 420 2165 366 2165 309L2165 76C2165 31 2154 31 2087 31L2087 0C2122 1 2173 3 2200 3C2226 3 2278 1 2312 0L2312 31C2245 31 2234 31 2234 76L2234 260C2234 364 2305 420 2369 420C2432 420 2443 366 2443 309L2443 76C2443 31 2432 31 2365 31L2365 0C2400 1 2451 3 2478 3C2504 3 2556 1 2590 0L2590 31C2538 31 2513 31 2512 61L2512 252C2512 338 2512 369 2481 405C2467 422 2434 442 2376 442C2292 442 2248 382 2231 344C2217 431 2143 442 2098 442C2025 442 1978 399 1950 337L1950 442L1809 431L1809 400C1879 400 1887 393 1887 344L1887 76C1887 31 1876 31 1809 31Z" stroke="rgb(0,0,0)" stroke-opacity="1" stroke-width="8" fill="rgb(0,0,0)" fill-opacity="1"></path></g></g></g></g><g><g><g><g transform="matrix(1,0,0,1,309,16)"><path transform="matrix(0.015,0,0,-0.015,0,0)" d="M42 135C42 44 135 -22 244 -22C366 -22 457 69 457 171C457 253 394 331 290 352C372 379 430 449 430 528C430 610 342 666 246 666C145 666 69 606 69 530C69 497 91 478 120 478C151 478 171 500 171 529C171 579 124 579 109 579C140 628 206 641 242 641C283 641 338 619 338 529C338 517 336 459 310 415C280 367 246 364 221 363C213 362 189 360 182 360C174 359 167 358 167 348C167 337 174 337 191 337L235 337C317 337 354 269 354 171C354 35 285 6 241 6C198 6 123 23 88 82C123 77 154 99 154 137C154 173 127 193 98 193C74 193 42 179 42 135ZM539 320C539 245 543 155 584 79C627 -2 700 -22 749 -22C803 -22 879 -1 923 94C955 163 960 241 960 320C960 400 955 480 920 554C874 650 792 666 750 666C690 666 617 640 576 547C544 478 539 400 539 320ZM622 332C622 396 622 462 630 516C649 635 724 644 749 644C782 644 848 626 867 527C877 471 877 395 877 332C877 257 877 189 866 125C851 30 794 0 749 0C710 0 651 25 633 121C622 181 622 273 622 332ZM1367 216C1367 88 1466 -11 1582 -11C1716 -11 1748 109 1748 119C1748 129 1738 129 1735 129C1726 129 1724 125 1722 119C1693 26 1628 14 1591 14C1538 14 1450 57 1450 218C1450 381 1532 423 1585 423C1594 423 1657 422 1692 386C1651 383 1645 353 1645 340C1645 314 1663 294 1691 294C1717 294 1737 311 1737 341C1737 409 1661 448 1584 448C1459 448 1367 340 1367 216ZM1809 0C1844 1 1895 3 1922 3C1948 3 2000 1 2034 0L2034 31C1967 31 1956 31 1956 76L1956 260C1956 364 2027 420 2091 420C2154 420 2165 366 2165 309L2165 76C2165 31 2154 31 2087 31L2087 0C2122 1 2173 3 2200 3C2226 3 2278 1 2312 0L2312 31C2245 31 2234 31 2234 76L2234 260C2234 364 2305 420 2369 420C2432 420 2443 366 2443 309L2443 76C2443 31 2432 31 2365 31L2365 0C2400 1 2451 3 2478 3C2504 3 2556 1 2590 0L2590 31C2538 31 2513 31 2512 61L2512 252C2512 338 2512 369 2481 405C2467 422 2434 442 2376 442C2292 442 2248 382 2231 344C2217 431 2143 442 2098 442C2025 442 1978 399 1950 337L1950 442L1809 431L1809 400C1879 400 1887 393 1887 344L1887 76C1887 31 1876 31 1809 31Z" stroke="rgb(0,0,0)" stroke-opacity="1" stroke-width="8" fill="rgb(0,0,0)" fill-opacity="1"></path></g></g></g></g></svg>
</svg>
