<svg xmlns="http://www.w3.org/2000/svg" xmlns:xlink="http://www.w3.org/1999/xlink" x="0" y="0" width="662" height="305" style="
        width:662px;
        height:305px;
        background: transparent;
        fill: none;
">
        
        
        <svg xmlns="http://www.w3.org/2000/svg" class="role-diagram-draw-area"><g class="shapes-region" style="stroke: black; fill: none;"><g class="composite-shape"><path class="real" d=" M482.15,143.82 C482.15,134.74 489.51,127.37 498.6,127.37 C507.68,127.37 515.05,134.74 515.05,143.82 C515.05,152.91 507.68,160.28 498.6,160.28 C489.51,160.28 482.15,152.91 482.15,143.82 Z" style="stroke-width: 1; stroke: rgb(0, 0, 0); fill: rgb(0, 0, 0); fill-opacity: 1;"/></g><g class="composite-shape"><path class="real" d=" M205.48,145.01 C205.48,118.76 226.76,97.48 253.01,97.48 C279.25,97.48 300.53,118.76 300.53,145.01 C300.53,171.25 279.25,192.53 253.01,192.53 C226.76,192.53 205.48,171.25 205.48,145.01 Z" style="stroke-width: 1; stroke: rgb(0, 0, 0); fill: none; fill-opacity: 1;"/></g><g class="arrow-line"><path class="connection real" stroke-dasharray="" d="  M250.18,191.53 L250.18,271.79" style="stroke: rgb(0, 0, 0); stroke-width: 1; fill: none; fill-opacity: 1;"/><g stroke="#000" transform="matrix(-1.8369701987210297e-16,-1,1,-1.8369701987210297e-16,250.17865118356409,273.79097811523)" style="stroke: rgb(0, 0, 0); stroke-width: 1;"><path d=" M10.93,-3.29 Q4.96,-0.45 0,0 Q4.96,0.45 10.93,3.29"/></g></g><g class="arrow-line"><path class="connection real" stroke-dasharray="" d="  M204.48,144.01 L124.22,144.01" style="stroke: rgb(0, 0, 0); stroke-width: 1; fill: none; fill-opacity: 1;"/><g stroke="#000" transform="matrix(1,-2.4492935982947064e-16,2.4492935982947064e-16,1,122.22222222222223,144.0066001687261)" style="stroke: rgb(0, 0, 0); stroke-width: 1;"><path d=" M10.93,-3.29 Q4.96,-0.45 0,0 Q4.96,0.45 10.93,3.29"/></g></g><g class="arrow-line"><path class="connection real" stroke-dasharray="" d="  M252.01,17.22 L252.01,97.48" style="stroke: rgb(0, 0, 0); stroke-width: 1; fill: none; fill-opacity: 1;"/><g stroke="#000" transform="matrix(6.123233995736766e-17,1,-1,6.123233995736766e-17,252.00660016872607,15.222222222222229)" style="stroke: rgb(0, 0, 0); stroke-width: 1;"><path d=" M10.93,-3.29 Q4.96,-0.45 0,0 Q4.96,0.45 10.93,3.29"/></g></g><g class="arrow-line"><path class="connection real" stroke-dasharray="" d="  M380.79,144.01 L300.53,144.01" style="stroke: rgb(0, 0, 0); stroke-width: 1; fill: none; fill-opacity: 1;"/><g stroke="#000" transform="matrix(-1,1.2246467991473532e-16,-1.2246467991473532e-16,-1,382.7909781152299,144.00660016872615)" style="stroke: rgb(0, 0, 0); stroke-width: 1;"><path d=" M10.93,-3.29 Q4.96,-0.45 0,0 Q4.96,0.45 10.93,3.29"/></g></g><g class="arrow-line"><path class="connection real" stroke-dasharray="" d="  M217.11,176.97 L160.36,233.72" style="stroke: rgb(0, 0, 0); stroke-width: 1; fill: none; fill-opacity: 1;"/><g stroke="#000" transform="matrix(0.7071067811865474,-0.7071067811865477,0.7071067811865477,0.7071067811865474,158.9426313076043,235.13061287035163)" style="stroke: rgb(0, 0, 0); stroke-width: 1;"><path d=" M10.93,-3.29 Q4.96,-0.45 0,0 Q4.96,0.45 10.93,3.29"/></g></g><g class="arrow-line"><path class="connection real" stroke-dasharray="" d="  M218.4,112.05 L161.65,55.29" style="stroke: rgb(0, 0, 0); stroke-width: 1; fill: none; fill-opacity: 1;"/><g stroke="#000" transform="matrix(0.7071067811865483,0.7071067811865467,-0.7071067811865467,0.7071067811865483,160.23518643067536,53.88034051732126)" style="stroke: rgb(0, 0, 0); stroke-width: 1;"><path d=" M10.93,-3.29 Q4.96,-0.45 0,0 Q4.96,0.45 10.93,3.29"/></g></g><g class="arrow-line"><path class="connection real" stroke-dasharray="" d="  M343.36,54.29 L286.61,111.05" style="stroke: rgb(0, 0, 0); stroke-width: 1; fill: none; fill-opacity: 1;"/><g stroke="#000" transform="matrix(-0.7071067811865475,0.7071067811865476,-0.7071067811865476,-0.7071067811865475,344.7780139067769,52.8803405173212)" style="stroke: rgb(0, 0, 0); stroke-width: 1;"><path d=" M10.93,-3.29 Q4.96,-0.45 0,0 Q4.96,0.45 10.93,3.29"/></g></g><g class="arrow-line"><path class="connection real" stroke-dasharray="" d="  M342.36,236.01 L285.61,179.26" style="stroke: rgb(0, 0, 0); stroke-width: 1; fill: none; fill-opacity: 1;"/><g stroke="#000" transform="matrix(-0.7071067811865477,-0.7071067811865475,0.7071067811865475,-0.7071067811865477,343.7780139067768,237.42316799342268)" style="stroke: rgb(0, 0, 0); stroke-width: 1;"><path d=" M10.93,-3.29 Q4.96,-0.45 0,0 Q4.96,0.45 10.93,3.29"/></g></g><g class="composite-shape"><path class="real" d=" M498.6,136.62 L562.14,136.62 L562.14,129.41 L604.5,143.82 L562.14,158.24 L562.14,151.03 L498.6,151.03 Z" style="stroke-width: 1; stroke: rgb(0, 0, 0); fill: none; fill-opacity: 1;"/></g><g/></g><g/><g/><g/></svg>
        <svg xmlns="http://www.w3.org/2000/svg" xmlns:xlink="http://www.w3.org/1999/xlink" width="660" height="303" style="width:660px;height:303px;font-family:Asana-Math, Asana;background:transparent;"><g><g><g><g transform="matrix(1,0,0,1,241.4609375,155.424375)"><path transform="matrix(0.03519,0,0,-0.03519,0,0)" d="M604 241L604 300L364 300L364 538L305 538L305 300L65 300L65 241L305 241L305 0L364 0L364 241Z" stroke="rgb(0,0,0)" stroke-opacity="1" stroke-width="8" fill="rgb(0,0,0)" fill-opacity="1"></path></g></g></g></g><g><g><g><g transform="matrix(1,0,0,1,485.875,182.790625)"><path transform="matrix(0.020399999999999998,0,0,-0.020399999999999998,0,0)" d="M385 458C342 475 313 482 284 482C209 482 121 394 103 374C63 327 24 181 24 78C24 19 36 -11 60 -11C82 -11 101 -3 133 19C180 51 259 121 308 209L232 -205C227 -229 217 -249 205 -262L214 -276C245 -268 276 -262 300 -259C304 -205 310 -150 319 -100L405 356C416 417 422 443 432 474L418 480ZM118 59C104 59 96 80 96 113C96 209 139 359 181 409C193 424 222 433 254 433C282 433 303 427 351 406L330 311C301 174 160 59 118 59Z" stroke="rgb(0,0,0)" stroke-opacity="1" stroke-width="8" fill="rgb(0,0,0)" fill-opacity="1"></path></g></g><g><g><g><g><g transform="matrix(1,0,0,1,495.921875,186.389375)"><path transform="matrix(0.01428,0,0,-0.01428,0,0)" d="M125 390L69 107C68 99 56 61 56 31C56 6 67 -9 86 -9C121 -9 156 11 234 74L265 99L255 117L210 86C181 66 161 56 150 56C141 56 136 64 136 76C136 102 150 183 179 328L192 390L299 390L310 440C272 436 238 434 200 434C216 528 227 577 245 631L234 646C214 634 187 622 156 610L131 440C87 419 61 408 43 403L41 390ZM660 111L636 94C583 56 535 36 499 36C452 36 423 73 423 133C423 158 426 185 431 214C448 218 557 248 582 259C667 296 706 342 706 404C706 451 672 482 622 482C554 496 444 423 407 349C377 299 347 180 347 113C347 35 391 -11 463 -11C520 -11 576 17 668 92ZM445 274C462 343 482 386 511 412C529 428 560 440 584 440C613 440 632 420 632 388C632 344 597 297 545 272C517 258 481 247 436 237ZM751 148C746 97 740 62 729 16C767 -2 801 -11 836 -11C885 -11 931 7 982 47C1033 87 1054 124 1054 174C1054 228 1022 257 948 271L905 279C845 290 826 307 826 348C826 401 871 442 928 442C969 442 1007 424 1023 397L1023 342L1046 342C1050 377 1054 404 1065 455C1026 474 998 482 965 482C913 482 852 452 804 404C778 377 767 352 767 316C767 260 798 228 864 215L927 203C971 195 987 177 987 138C987 73 941 29 870 29C835 29 804 40 776 64L776 148ZM1233 390L1177 107C1176 99 1164 61 1164 31C1164 6 1175 -9 1194 -9C1229 -9 1264 11 1342 74L1373 99L1363 117L1318 86C1289 66 1269 56 1258 56C1249 56 1244 64 1244 76C1244 102 1258 183 1287 328L1300 390L1407 390L1418 440C1380 436 1346 434 1308 434C1324 528 1335 577 1353 631L1342 646C1322 634 1295 622 1264 610L1239 440C1195 419 1169 408 1151 403L1149 390Z" stroke="rgb(0,0,0)" stroke-opacity="1" stroke-width="8" fill="rgb(0,0,0)" fill-opacity="1"></path></g></g></g></g></g></g></g><g><g><g><g transform="matrix(1,0,0,1,491.59375,151.01125)"><path transform="matrix(0.024480000000000002,0,0,-0.024480000000000002,0,0)" d="M555 243L555 299L51 299L51 243Z" stroke="rgb(255,255,255)" stroke-opacity="1" stroke-width="8" fill="rgb(255,255,255)" fill-opacity="1"></path></g></g></g></g><g><g><g><g transform="matrix(1,0,0,1,221.1640625,287.19875)"><path transform="matrix(0.024480000000000002,0,0,-0.024480000000000002,0,0)" d="M385 458C342 475 313 482 284 482C209 482 121 394 103 374C63 327 24 181 24 78C24 19 36 -11 60 -11C82 -11 101 -3 133 19C180 51 259 121 308 209L232 -205C227 -229 217 -249 205 -262L214 -276C245 -268 276 -262 300 -259C304 -205 310 -150 319 -100L405 356C416 417 422 443 432 474L418 480ZM118 59C104 59 96 80 96 113C96 209 139 359 181 409C193 424 222 433 254 433C282 433 303 427 351 406L330 311C301 174 160 59 118 59Z" stroke="rgb(0,0,0)" stroke-opacity="1" stroke-width="8" fill="rgb(0,0,0)" fill-opacity="1"></path></g></g><g><g><g><g><g transform="matrix(1,0,0,1,233.2109375,291.511)"><path transform="matrix(0.017136,0,0,-0.017136,0,0)" d="M31 148C26 97 20 62 9 16C47 -2 81 -11 116 -11C165 -11 211 7 262 47C313 87 334 124 334 174C334 228 302 257 228 271L185 279C125 290 106 307 106 348C106 401 151 442 208 442C249 442 287 424 303 397L303 342L326 342C330 377 334 404 345 455C306 474 278 482 245 482C193 482 132 452 84 404C58 377 47 352 47 316C47 260 78 228 144 215L207 203C251 195 267 177 267 138C267 73 221 29 150 29C115 29 84 40 56 64L56 148ZM405 152C405 46 450 -11 533 -11C588 -11 648 15 693 57C755 116 799 230 799 331C799 425 749 482 666 482C562 482 405 382 405 152ZM629 444C690 444 723 399 723 315C723 219 692 113 648 60C630 39 604 27 573 27C515 27 481 72 481 151C481 264 520 387 569 427C582 438 605 444 629 444ZM1323 473L1316 482L1248 465L1238 414C1223 336 1198 268 1167 221C1108 130 1030 59 990 59C982 59 977 68 977 85C977 99 979 112 984 137L1041 408C1044 424 1046 438 1046 451C1046 470 1037 482 1023 482C1003 482 965 461 891 408L863 388L870 368L902 389C930 407 941 412 950 412C959 412 967 403 967 392C967 388 966 378 965 374L902 77C900 68 898 44 898 30C898 7 913 -11 933 -11C996 -11 1117 101 1201 239L1164 97C1157 73 1153 46 1153 31C1153 6 1164 -9 1183 -9C1209 -9 1245 12 1343 85L1333 103L1307 86C1283 70 1257 59 1246 59C1238 59 1233 66 1233 76C1233 112 1308 416 1323 473ZM1754 365C1757 403 1762 435 1770 476C1759 481 1755 482 1750 482C1719 482 1688 458 1652 407C1613 351 1574 291 1558 256L1590 408C1594 425 1596 438 1596 450C1596 470 1588 482 1573 482C1552 482 1514 461 1440 408L1412 388L1419 368L1451 389C1479 407 1490 412 1499 412C1509 412 1516 403 1516 390C1516 332 1473 126 1433 -2L1443 -9C1458 -4 1474 -1 1497 4L1510 6L1536 126C1554 209 1577 262 1621 319C1655 363 1682 384 1704 384C1719 384 1729 379 1740 365ZM2116 330L2139 330C2147 395 2154 432 2163 458C2139 473 2104 482 2067 482C2022 483 1949 463 1892 400C1838 352 1799 241 1799 136C1799 40 1841 -11 1921 -11C1975 -11 2023 9 2078 54L2128 95L2120 115L2105 105C2033 57 1995 40 1960 40C1904 40 1875 80 1875 159C1875 267 1910 371 1959 409C1980 425 2004 433 2035 433C2080 433 2116 414 2116 390ZM2508 111L2484 94C2431 56 2383 36 2347 36C2300 36 2271 73 2271 133C2271 158 2274 185 2279 214C2296 218 2405 248 2430 259C2515 296 2554 342 2554 404C2554 451 2520 482 2470 482C2402 496 2292 423 2255 349C2225 299 2195 180 2195 113C2195 35 2239 -11 2311 -11C2368 -11 2424 17 2516 92ZM2293 274C2310 343 2330 386 2359 412C2377 428 2408 440 2432 440C2461 440 2480 420 2480 388C2480 344 2445 297 2393 272C2365 258 2329 247 2284 237Z" stroke="rgb(0,0,0)" stroke-opacity="1" stroke-width="8" fill="rgb(0,0,0)" fill-opacity="1"></path></g></g></g></g></g></g></g><g><g><g><g transform="matrix(1,0,0,1,350.171875,53.480000000000004)"><path transform="matrix(0.024480000000000002,0,0,-0.024480000000000002,0,0)" d="M221 334L338 334L470 330L489 375L485 382C404 378 344 376 266 376L229 376L276 646C308 647 391 650 413 650C475 650 516 641 517 626L525 537L549 537C552 601 559 651 570 689C549 691 519 692 501 692C498 692 487 692 463 691L343 690C334 689 160 691 150 691L105 692L102 664L156 662C180 661 191 653 191 635C191 621 187 589 182 559L95 55C91 37 79 30 35 23L30 -3L71 -2C102 -1 164 0 184 0L409 -3C423 -3 448 -2 481 -1L514 0L518 36C520 56 525 86 534 135L539 161L512 161L496 101C486 65 477 53 455 48C435 44 362 39 308 39C267 39 240 40 171 46Z" stroke="rgb(0,0,0)" stroke-opacity="1" stroke-width="8" fill="rgb(0,0,0)" fill-opacity="1"></path></g></g></g></g><g><g><g><g transform="matrix(1,0,0,1,564.171875,124.48)"><path transform="matrix(0.024480000000000002,0,0,-0.024480000000000002,0,0)" d="M286 646L392 650C454 650 494 641 495 626L503 537L527 537C530 600 537 651 548 689C526 691 498 692 481 692L440 691L275 689L246 689C221 689 181 690 143 691L94 692L91 664L147 662C171 661 182 652 182 635C182 621 178 589 173 559L98 125C81 33 81 32 40 28L4 25L0 -3L34 -2C74 -1 106 0 127 0C145 0 174 -1 213 -2L265 -3L268 25L204 28C177 29 168 37 168 57C168 63 169 74 170 78L206 301L323 301C350 301 381 300 429 298L455 297L474 342L470 349C389 345 329 343 251 343L214 343L260 614C263 630 264 635 269 646Z" stroke="rgb(0,0,0)" stroke-opacity="1" stroke-width="8" fill="rgb(0,0,0)" fill-opacity="1"></path></g></g></g></g></svg>
</svg>
